<svg data-v-fde0c5aa="" xmlns="http://www.w3.org/2000/svg" viewBox="0 0 300 300" class="iconLeft"><!----><defs data-v-fde0c5aa=""><!----></defs><rect data-v-fde0c5aa="" fill="#0B345A" x="0" y="0" width="300px" height="300px" class="logo-background-square"></rect><defs data-v-fde0c5aa=""><!----></defs><g data-v-fde0c5aa="" id="9ffe28ad-30e0-4836-a496-56282a5fd209" fill="#22C4D6" transform="matrix(2.8712767759135156,0,0,2.8712767759135156,122.8391061589673,130.40353552519426)"><path d="M11.28 6.13L5.95 6.13L5.95 8.16L8.61 8.16C8.61 9.58 7.36 10.39 6.10 10.39C4.48 10.39 3.16 8.79 3.16 6.83C3.16 4.83 4.48 3.22 6.10 3.22C7.13 3.22 8.01 3.63 8.68 4.70L10.40 2.81C9.39 1.60 7.98 0.84 5.95 0.84C2.70 0.84 0.32 3.51 0.32 6.83C0.32 10.14 2.84 12.81 5.95 12.81C8.22 12.81 10.65 11.56 11.28 8.64ZM21.32 1.05L18.69 1.05L18.69 7.73C18.69 9.66 18.10 10.22 16.81 10.22C15.53 10.22 14.94 9.66 14.94 7.73L14.94 1.05L12.31 1.05L12.31 8.50C12.31 11.35 13.87 12.81 16.81 12.81C19.75 12.81 21.32 11.35 21.32 8.50ZM29.47 1.05L22.86 1.05L22.86 12.60L29.47 12.60L29.47 10.29L25.49 10.29L25.49 7.97L29.30 7.97L29.30 5.66L25.49 5.66L25.49 3.36L29.47 3.36ZM33.61 1.05L30.98 1.05L30.98 12.60L37.59 12.60L37.59 10.29L33.61 10.29ZM47.77 1.05L45.14 1.05L45.14 7.73C45.14 9.66 44.55 10.22 43.26 10.22C41.97 10.22 41.38 9.66 41.38 7.73L41.38 1.05L38.75 1.05L38.75 8.50C38.75 11.35 40.32 12.81 43.26 12.81C46.20 12.81 47.77 11.35 47.77 8.50Z"></path></g><defs data-v-fde0c5aa=""><!----></defs><g data-v-fde0c5aa="" id="6e32e4eb-0ca0-409b-9986-d7568adc3201" stroke="none" fill="#22C4D6" transform="matrix(2.2111848372591676,0,0,2.2111848372591676,40,114.61993656437966)"><path d="M12.289 5.343v19.9L1 13.954V5.343h11.289m1-1H0v10.026l13.289 13.289V4.343zM31 5.343v8.612L19.711 25.243v-19.9H31m1-1H18.711v23.315L32 14.369V4.343z"></path></g><!----></svg>